<?xml version="1.0" encoding="utf-8"?>
<!-- Generator: Adobe Illustrator 18.0.0, SVG Export Plug-In . SVG Version: 6.00 Build 0)  -->
<!DOCTYPE svg PUBLIC "-//W3C//DTD SVG 1.1//EN" "http://www.w3.org/Graphics/SVG/1.1/DTD/svg11.dtd">
<svg version="1.1" id="Layer_1" xmlns="http://www.w3.org/2000/svg" xmlns:xlink="http://www.w3.org/1999/xlink" x="0px" y="0px"
	 viewBox="0 0 38 38" enable-background="new 0 0 38 38" xml:space="preserve">
<path fill="#010101" d="M27.5,0h-4.9c-5.5,0-9.1,3.7-9.1,9.3v4.3h-5c-0.4,0-0.8,0.3-0.8,0.8v6.3c0,0.4,0.3,0.8,0.8,0.8h5v15.8
	c0,0.4,0.3,0.8,0.8,0.8h6.5c0.4,0,0.8-0.3,0.8-0.8V21.5h5.8c0.4,0,0.8-0.3,0.8-0.8v-6.3c0-0.2-0.1-0.4-0.2-0.5
	c-0.2-0.2-0.3-0.2-0.5-0.2h-5.8V10c0-1.8,0.4-2.7,2.7-2.7h3.3c0.4,0,0.8-0.3,0.8-0.8V0.8C28.3,0.4,27.9,0,27.5,0z"/>
</svg>
