<?xml version="1.0" encoding="utf-8"?>
<!-- Generator: Adobe Illustrator 18.0.0, SVG Export Plug-In . SVG Version: 6.00 Build 0)  -->
<!DOCTYPE svg PUBLIC "-//W3C//DTD SVG 1.1//EN" "http://www.w3.org/Graphics/SVG/1.1/DTD/svg11.dtd">
<svg version="1.1" id="Layer_1" xmlns="http://www.w3.org/2000/svg" xmlns:xlink="http://www.w3.org/1999/xlink" x="0px" y="0px"
	 viewBox="0 0 38 38" enable-background="new 0 0 38 38" xml:space="preserve">
<g>
	<rect x="0.5" y="14.8" width="8.6" height="23.2"/>
	<path d="M28.8,14.1c-3.1,0-5.1,1.3-6.2,2.6v-1.9h-8.5l0,0.5c0.1,2.1,0,22.1,0,22.3V38h8.4V25c0-0.8,0.1-1.3,0.2-1.6
		c0.3-0.7,1.2-2.4,3.3-2.4c2.1,0,3.3,1.5,3.3,4.5V38H38V24.7C38,18.1,34.5,14.1,28.8,14.1z"/>
	<path d="M4.7,3.8C2,3.8,0,5.7,0,8.2s2,4.4,4.6,4.4h0c2.8,0,4.7-1.9,4.7-4.4C9.4,5.6,7.4,3.8,4.7,3.8z"/>
</g>
</svg>
