<?xml version="1.0" encoding="utf-8"?>
<!-- Generator: Adobe Illustrator 18.1.1, SVG Export Plug-In . SVG Version: 6.00 Build 0)  -->
<!DOCTYPE svg PUBLIC "-//W3C//DTD SVG 1.1//EN" "http://www.w3.org/Graphics/SVG/1.1/DTD/svg11.dtd">
<svg version="1.1" id="Layer_1" xmlns="http://www.w3.org/2000/svg" xmlns:xlink="http://www.w3.org/1999/xlink" x="0px" y="0px"
	 viewBox="0 0 99 80" enable-background="new 0 0 99 80" xml:space="preserve">
<path d="M96.3,1.5c-3.9,2.3-8.2,4-12.8,4.9C79.9,2.4,74.6,0,68.8,0C57.7,0,48.7,9,48.7,20.2c0,1.6,0.2,3.1,0.5,4.6
	C32.5,24,17.7,15.9,7.7,3.7C6,6.7,5,10.1,5,13.8c0,7,3.6,13.2,9,16.8c-3.3-0.1-6.4-1-9.1-2.5v0.3c0,9.8,6.9,18,16.1,19.8
	c-1.7,0.5-3.5,0.7-5.3,0.7c-1.3,0-2.6-0.1-3.8-0.4c2.6,8,10,13.9,18.8,14c-6.9,5.4-15.6,8.6-25,8.6c-1.6,0-3.2-0.1-4.8-0.3
	C9.8,76.7,20.4,80,31.8,80C68.8,80,89,49.2,89,22.5L89,19.9c3.9-2.8,7.4-6.4,10.1-10.4c-3.6,1.6-7.5,2.7-11.6,3.2
	C91.6,10.1,94.8,6.2,96.3,1.5z"/>
</svg>
